<?xml version="1.0" standalone="no"?>
<!DOCTYPE svg PUBLIC "-//W3C//DTD SVG 20010904//EN"
 "http://www.w3.org/TR/2001/REC-SVG-20010904/DTD/svg10.dtd">
<svg version="1.0" xmlns="http://www.w3.org/2000/svg"
 width="150.000000pt" height="150.000000pt" viewBox="0 0 150.000000 150.000000"
 preserveAspectRatio="xMidYMid meet">
<metadata>
Created by potrace 1.14, written by Peter Selinger 2001-2017
</metadata>
<g transform="translate(0.000000,150.000000) scale(0.100000,-0.100000)"
fill="#000000" stroke="none">
<path d="M53 1490 c-55 -23 -54 2 -51 -748 l3 -691 23 -23 23 -23 690 -3 c467
-2 696 1 709 8 51 27 51 18 48 755 l-3 684 -23 23 -23 23 -687 2 c-385 1 -697
-2 -709 -7z m1371 -66 c14 -14 16 -88 16 -670 0 -433 -4 -662 -10 -675 -10
-18 -28 -19 -675 -19 -590 0 -665 2 -679 16 -14 14 -16 89 -16 674 0 585 2
660 16 674 14 14 89 16 674 16 585 0 660 -2 674 -16z"/>
<path d="M676 1166 c-38 -35 -54 -59 -50 -69 8 -22 31 -28 47 -14 7 7 27 25
44 40 l31 29 32 -29 c58 -51 209 -188 308 -280 l57 -53 -47 0 c-26 0 -50 -5
-54 -12 -4 -6 -6 -94 -5 -195 l2 -183 -85 0 -85 0 -3 113 -3 112 -115 0 -115
0 -3 -112 -3 -113 -84 0 c-61 0 -85 4 -86 13 0 6 -1 93 -2 192 l-2 180 -49 3
-49 3 39 40 c31 32 36 43 28 56 -16 26 -28 26 -55 1 -14 -13 -43 -39 -65 -59
-61 -55 -69 -66 -54 -84 9 -11 32 -15 81 -15 l69 0 -2 -185 c-1 -114 2 -189 9
-196 6 -6 63 -8 144 -7 l134 3 3 113 3 112 59 0 59 0 3 -112 3 -113 140 0 140
0 3 193 2 192 69 0 c51 0 72 4 82 16 15 18 20 12 -217 230 -209 192 -270 244
-285 244 -9 0 -42 -24 -73 -54z"/>
<path d="M530 1013 c-34 -32 -66 -59 -71 -61 -14 -5 -11 -32 4 -32 6 1 44 30
82 65 52 48 67 67 59 75 -9 9 -27 -3 -74 -47z"/>
<path d="M602 993 c4 -18 76 -45 84 -31 9 14 -6 25 -49 36 -32 9 -38 8 -35 -5z"/>
<path d="M550 960 c0 -14 75 -90 89 -90 22 0 10 26 -27 63 -37 36 -62 47 -62
27z"/>
<path d="M518 924 c-4 -3 -3 -16 2 -29 5 -13 7 -25 4 -28 -2 -2 2 -10 11 -17
22 -18 27 -9 17 35 -7 37 -21 52 -34 39z"/>
</g>
</svg>
